<?xml version="1.0" encoding="UTF-8" standalone="no"?>
<!DOCTYPE svg PUBLIC "-//W3C//DTD SVG 1.1//EN"
 "http://www.w3.org/Graphics/SVG/1.1/DTD/svg11.dtd">
<!-- Generated by graphviz version 2.28.0 (20121119.0800)
 -->
<!-- Title: controllers_diagram Pages: 1 -->
<svg width="863pt" height="767pt"
 viewBox="0.00 0.00 862.72 767.40" xmlns="http://www.w3.org/2000/svg" xmlns:xlink="http://www.w3.org/1999/xlink">
<g id="graph1" class="graph" transform="scale(1 1) rotate(0) translate(4 763.4)">
<title>controllers_diagram</title>
<polygon fill="white" stroke="white" points="-4,5 -4,-763.4 859.725,-763.4 859.725,5 -4,5"/>
<!-- _diagram_info -->
<g id="node1" class="node"><title>_diagram_info</title>
<text text-anchor="start" x="492" y="-465" font-family="Times,serif" font-size="13.00">Controllers diagram</text>
<text text-anchor="start" x="492" y="-449.4" font-family="Times,serif" font-size="13.00">Date: Nov 25 2012 &#45; 13:46</text>
<text text-anchor="start" x="492" y="-433.8" font-family="Times,serif" font-size="13.00">Migration version: 20121125031423</text>
<text text-anchor="start" x="492" y="-418.2" font-family="Times,serif" font-size="13.00">Generated by RailRoady 1.1.0</text>
<text text-anchor="start" x="492" y="-402.6" font-family="Times,serif" font-size="13.00">http://railroady.prestonlee.com</text>
</g>
<!-- ApplicationController -->
<g id="node2" class="node"><title>ApplicationController</title>
<polyline fill="none" stroke="black" points="247.864,-275.9 433.499,-275.9 "/>
<path fill="none" stroke="black" d="M433.499,-275.9C439.499,-275.9 445.499,-281.9 445.499,-287.9"/>
<polyline fill="none" stroke="black" points="445.499,-287.9 445.499,-447.1 "/>
<path fill="none" stroke="black" d="M445.499,-447.1C445.499,-453.1 439.499,-459.1 433.499,-459.1"/>
<polyline fill="none" stroke="black" points="433.499,-459.1 247.864,-459.1 "/>
<path fill="none" stroke="black" d="M247.864,-459.1C241.864,-459.1 235.864,-453.1 235.864,-447.1"/>
<polyline fill="none" stroke="black" points="235.864,-447.1 235.864,-287.9 "/>
<path fill="none" stroke="black" d="M235.864,-287.9C235.864,-281.9 241.864,-275.9 247.864,-275.9"/>
<text text-anchor="middle" x="340.682" y="-441.1" font-family="Times,serif" font-size="14.00">ApplicationController</text>
<polyline fill="none" stroke="black" points="235.864,-434.3 445.499,-434.3 "/>
<text text-anchor="start" x="243.864" y="-416.3" font-family="Times,serif" font-size="14.00">_one_time_conditions_valid_100?</text>
<text text-anchor="start" x="243.864" y="-399.5" font-family="Times,serif" font-size="14.00">_one_time_conditions_valid_104?</text>
<text text-anchor="start" x="243.864" y="-382.7" font-family="Times,serif" font-size="14.00">_one_time_conditions_valid_106?</text>
<text text-anchor="start" x="243.864" y="-365.9" font-family="Times,serif" font-size="14.00">_one_time_conditions_valid_108?</text>
<text text-anchor="start" x="243.864" y="-349.1" font-family="Times,serif" font-size="14.00">_one_time_conditions_valid_98?</text>
<polyline fill="none" stroke="black" points="235.864,-342.3 445.499,-342.3 "/>
<text text-anchor="start" x="243.864" y="-324.3" font-family="Times,serif" font-size="14.00">log_request_info</text>
<text text-anchor="start" x="243.864" y="-307.5" font-family="Times,serif" font-size="14.00">set_current_user</text>
<polyline fill="none" stroke="black" points="235.864,-300.7 445.499,-300.7 "/>
<text text-anchor="start" x="243.864" y="-282.7" font-family="Times,serif" font-size="14.00">_layout</text>
</g>
<!-- MainController -->
<g id="node9" class="node"><title>MainController</title>
<polyline fill="none" stroke="black" points="451.599,-515.123 530.696,-515.123 "/>
<path fill="none" stroke="black" d="M530.696,-515.123C536.696,-515.123 542.696,-521.123 542.696,-527.123"/>
<polyline fill="none" stroke="black" points="542.696,-527.123 542.696,-601.523 "/>
<path fill="none" stroke="black" d="M542.696,-601.523C542.696,-607.523 536.696,-613.523 530.696,-613.523"/>
<polyline fill="none" stroke="black" points="530.696,-613.523 451.599,-613.523 "/>
<path fill="none" stroke="black" d="M451.599,-613.523C445.599,-613.523 439.599,-607.523 439.599,-601.523"/>
<polyline fill="none" stroke="black" points="439.599,-601.523 439.599,-527.123 "/>
<path fill="none" stroke="black" d="M439.599,-527.123C439.599,-521.123 445.599,-515.123 451.599,-515.123"/>
<text text-anchor="middle" x="491.147" y="-595.523" font-family="Times,serif" font-size="14.00">MainController</text>
<polyline fill="none" stroke="black" points="439.599,-588.723 542.696,-588.723 "/>
<text text-anchor="start" x="447.599" y="-570.723" font-family="Times,serif" font-size="14.00">index</text>
<polyline fill="none" stroke="black" points="439.599,-563.923 542.696,-563.923 "/>
<polyline fill="none" stroke="black" points="439.599,-539.923 542.696,-539.923 "/>
<text text-anchor="start" x="447.599" y="-521.923" font-family="Times,serif" font-size="14.00">_layout</text>
</g>
<!-- ApplicationController&#45;&gt;MainController -->
<g id="edge2" class="edge"><title>ApplicationController&#45;&gt;MainController</title>
<path fill="none" stroke="black" d="M410.849,-459.285C425.559,-478.527 440.528,-498.109 453.494,-515.069"/>
</g>
<!-- ResourceController -->
<g id="node13" class="node"><title>ResourceController</title>
<polyline fill="none" stroke="black" points="166,-0.5 351.122,-0.5 "/>
<path fill="none" stroke="black" d="M351.122,-0.5C357.122,-0.5 363.122,-6.5 363.122,-12.5"/>
<polyline fill="none" stroke="black" points="363.122,-12.5 363.122,-254.9 "/>
<path fill="none" stroke="black" d="M363.122,-254.9C363.122,-260.9 357.122,-266.9 351.122,-266.9"/>
<polyline fill="none" stroke="black" points="351.122,-266.9 166,-266.9 "/>
<path fill="none" stroke="black" d="M166,-266.9C160,-266.9 154,-260.9 154,-254.9"/>
<polyline fill="none" stroke="black" points="154,-254.9 154,-12.5 "/>
<path fill="none" stroke="black" d="M154,-12.5C154,-6.5 160,-0.5 166,-0.5"/>
<text text-anchor="middle" x="258.561" y="-248.9" font-family="Times,serif" font-size="14.00">ResourceController</text>
<polyline fill="none" stroke="black" points="154,-242.1 363.122,-242.1 "/>
<text text-anchor="start" x="162" y="-224.1" font-family="Times,serif" font-size="14.00">_one_time_conditions_valid_110?</text>
<text text-anchor="start" x="162" y="-207.3" font-family="Times,serif" font-size="14.00">create</text>
<text text-anchor="start" x="162" y="-190.5" font-family="Times,serif" font-size="14.00">destroy</text>
<text text-anchor="start" x="162" y="-173.7" font-family="Times,serif" font-size="14.00">edit</text>
<text text-anchor="start" x="162" y="-156.9" font-family="Times,serif" font-size="14.00">index</text>
<text text-anchor="start" x="162" y="-140.1" font-family="Times,serif" font-size="14.00">new</text>
<text text-anchor="start" x="162" y="-123.3" font-family="Times,serif" font-size="14.00">resource_class</text>
<text text-anchor="start" x="162" y="-106.5" font-family="Times,serif" font-size="14.00">resource_class=</text>
<text text-anchor="start" x="162" y="-89.7" font-family="Times,serif" font-size="14.00">resource_class?</text>
<text text-anchor="start" x="162" y="-72.9" font-family="Times,serif" font-size="14.00">show</text>
<text text-anchor="start" x="162" y="-56.1" font-family="Times,serif" font-size="14.00">update</text>
<polyline fill="none" stroke="black" points="154,-49.3 363.122,-49.3 "/>
<polyline fill="none" stroke="black" points="154,-25.3 363.122,-25.3 "/>
<text text-anchor="start" x="162" y="-7.3" font-family="Times,serif" font-size="14.00">_layout</text>
</g>
<!-- ApplicationController&#45;&gt;ResourceController -->
<g id="edge4" class="edge"><title>ApplicationController&#45;&gt;ResourceController</title>
<path fill="none" stroke="black" d="M308.461,-275.767C307.473,-272.953 306.477,-270.118 305.476,-267.269"/>
</g>
<!-- ContactsController -->
<g id="node3" class="node"><title>ContactsController</title>
<polyline fill="none" stroke="black" points="56,-616.5 154.538,-616.5 "/>
<path fill="none" stroke="black" d="M154.538,-616.5C160.538,-616.5 166.538,-622.5 166.538,-628.5"/>
<polyline fill="none" stroke="black" points="166.538,-628.5 166.538,-702.1 "/>
<path fill="none" stroke="black" d="M166.538,-702.1C166.538,-708.1 160.538,-714.1 154.538,-714.1"/>
<polyline fill="none" stroke="black" points="154.538,-714.1 56,-714.1 "/>
<path fill="none" stroke="black" d="M56,-714.1C50,-714.1 44,-708.1 44,-702.1"/>
<polyline fill="none" stroke="black" points="44,-702.1 44,-628.5 "/>
<path fill="none" stroke="black" d="M44,-628.5C44,-622.5 50,-616.5 56,-616.5"/>
<text text-anchor="middle" x="105.269" y="-696.1" font-family="Times,serif" font-size="14.00">ContactsController</text>
<polyline fill="none" stroke="black" points="44,-689.3 166.538,-689.3 "/>
<polyline fill="none" stroke="black" points="44,-665.3 166.538,-665.3 "/>
<polyline fill="none" stroke="black" points="44,-641.3 166.538,-641.3 "/>
<text text-anchor="start" x="52" y="-623.3" font-family="Times,serif" font-size="14.00">_layout</text>
</g>
<!-- DataSourcesController -->
<g id="node4" class="node"><title>DataSourcesController</title>
<polyline fill="none" stroke="black" points="606,-528.5 726.297,-528.5 "/>
<path fill="none" stroke="black" d="M726.297,-528.5C732.297,-528.5 738.297,-534.5 738.297,-540.5"/>
<polyline fill="none" stroke="black" points="738.297,-540.5 738.297,-648.5 "/>
<path fill="none" stroke="black" d="M738.297,-648.5C738.297,-654.5 732.297,-660.5 726.297,-660.5"/>
<polyline fill="none" stroke="black" points="726.297,-660.5 606,-660.5 "/>
<path fill="none" stroke="black" d="M606,-660.5C600,-660.5 594,-654.5 594,-648.5"/>
<polyline fill="none" stroke="black" points="594,-648.5 594,-540.5 "/>
<path fill="none" stroke="black" d="M594,-540.5C594,-534.5 600,-528.5 606,-528.5"/>
<text text-anchor="middle" x="666.148" y="-642.5" font-family="Times,serif" font-size="14.00">DataSourcesController</text>
<polyline fill="none" stroke="black" points="594,-635.7 738.297,-635.7 "/>
<text text-anchor="start" x="602" y="-617.7" font-family="Times,serif" font-size="14.00">create</text>
<text text-anchor="start" x="602" y="-600.9" font-family="Times,serif" font-size="14.00">index</text>
<text text-anchor="start" x="602" y="-584.1" font-family="Times,serif" font-size="14.00">new</text>
<polyline fill="none" stroke="black" points="594,-577.3 738.297,-577.3 "/>
<polyline fill="none" stroke="black" points="594,-553.3 738.297,-553.3 "/>
<text text-anchor="start" x="602" y="-535.3" font-family="Times,serif" font-size="14.00">_layout</text>
</g>
<!-- DevicesController -->
<g id="node5" class="node"><title>DevicesController</title>
<polyline fill="none" stroke="black" points="210,-506.5 395.635,-506.5 "/>
<path fill="none" stroke="black" d="M395.635,-506.5C401.635,-506.5 407.635,-512.5 407.635,-518.5"/>
<polyline fill="none" stroke="black" points="407.635,-518.5 407.635,-643.3 "/>
<path fill="none" stroke="black" d="M407.635,-643.3C407.635,-649.3 401.635,-655.3 395.635,-655.3"/>
<polyline fill="none" stroke="black" points="395.635,-655.3 210,-655.3 "/>
<path fill="none" stroke="black" d="M210,-655.3C204,-655.3 198,-649.3 198,-643.3"/>
<polyline fill="none" stroke="black" points="198,-643.3 198,-518.5 "/>
<path fill="none" stroke="black" d="M198,-518.5C198,-512.5 204,-506.5 210,-506.5"/>
<text text-anchor="middle" x="302.817" y="-637.3" font-family="Times,serif" font-size="14.00">DevicesController</text>
<polyline fill="none" stroke="black" points="198,-630.5 407.635,-630.5 "/>
<text text-anchor="start" x="206" y="-612.5" font-family="Times,serif" font-size="14.00">_one_time_conditions_valid_314?</text>
<text text-anchor="start" x="206" y="-595.7" font-family="Times,serif" font-size="14.00">create</text>
<text text-anchor="start" x="206" y="-578.9" font-family="Times,serif" font-size="14.00">datatable</text>
<text text-anchor="start" x="206" y="-562.1" font-family="Times,serif" font-size="14.00">show</text>
<polyline fill="none" stroke="black" points="198,-555.3 407.635,-555.3 "/>
<polyline fill="none" stroke="black" points="198,-531.3 407.635,-531.3 "/>
<text text-anchor="start" x="206" y="-513.3" font-family="Times,serif" font-size="14.00">_layout</text>
</g>
<!-- EventFiltersController -->
<g id="node6" class="node"><title>EventFiltersController</title>
<polyline fill="none" stroke="black" points="408,-44.5 525.979,-44.5 "/>
<path fill="none" stroke="black" d="M525.979,-44.5C531.979,-44.5 537.979,-50.5 537.979,-56.5"/>
<polyline fill="none" stroke="black" points="537.979,-56.5 537.979,-130.1 "/>
<path fill="none" stroke="black" d="M537.979,-130.1C537.979,-136.1 531.979,-142.1 525.979,-142.1"/>
<polyline fill="none" stroke="black" points="525.979,-142.1 408,-142.1 "/>
<path fill="none" stroke="black" d="M408,-142.1C402,-142.1 396,-136.1 396,-130.1"/>
<polyline fill="none" stroke="black" points="396,-130.1 396,-56.5 "/>
<path fill="none" stroke="black" d="M396,-56.5C396,-50.5 402,-44.5 408,-44.5"/>
<text text-anchor="middle" x="466.99" y="-124.1" font-family="Times,serif" font-size="14.00">EventFiltersController</text>
<polyline fill="none" stroke="black" points="396,-117.3 537.979,-117.3 "/>
<polyline fill="none" stroke="black" points="396,-93.3 537.979,-93.3 "/>
<polyline fill="none" stroke="black" points="396,-69.3 537.979,-69.3 "/>
<text text-anchor="start" x="404" y="-51.3" font-family="Times,serif" font-size="14.00">_layout</text>
</g>
<!-- EventsController -->
<g id="node7" class="node"><title>EventsController</title>
<polyline fill="none" stroke="black" points="12,-242.5 99.6484,-242.5 "/>
<path fill="none" stroke="black" d="M99.6484,-242.5C105.648,-242.5 111.648,-248.5 111.648,-254.5"/>
<polyline fill="none" stroke="black" points="111.648,-254.5 111.648,-328.9 "/>
<path fill="none" stroke="black" d="M111.648,-328.9C111.648,-334.9 105.648,-340.9 99.6484,-340.9"/>
<polyline fill="none" stroke="black" points="99.6484,-340.9 12,-340.9 "/>
<path fill="none" stroke="black" d="M12,-340.9C6,-340.9 5.68434e-14,-334.9 5.68434e-14,-328.9"/>
<polyline fill="none" stroke="black" points="5.68434e-14,-328.9 5.68434e-14,-254.5 "/>
<path fill="none" stroke="black" d="M5.68434e-14,-254.5C5.68434e-14,-248.5 6,-242.5 12,-242.5"/>
<text text-anchor="middle" x="55.8242" y="-322.9" font-family="Times,serif" font-size="14.00">EventsController</text>
<polyline fill="none" stroke="black" points="5.68434e-14,-316.1 111.648,-316.1 "/>
<text text-anchor="start" x="8" y="-298.1" font-family="Times,serif" font-size="14.00">index</text>
<polyline fill="none" stroke="black" points="5.68434e-14,-291.3 111.648,-291.3 "/>
<polyline fill="none" stroke="black" points="5.68434e-14,-267.3 111.648,-267.3 "/>
<text text-anchor="start" x="8" y="-249.3" font-family="Times,serif" font-size="14.00">_layout</text>
</g>
<!-- InterfacesController -->
<g id="node8" class="node"><title>InterfacesController</title>
<polyline fill="none" stroke="black" points="738,-176.5 842.725,-176.5 "/>
<path fill="none" stroke="black" d="M842.725,-176.5C848.725,-176.5 854.725,-182.5 854.725,-188.5"/>
<polyline fill="none" stroke="black" points="854.725,-188.5 854.725,-262.1 "/>
<path fill="none" stroke="black" d="M854.725,-262.1C854.725,-268.1 848.725,-274.1 842.725,-274.1"/>
<polyline fill="none" stroke="black" points="842.725,-274.1 738,-274.1 "/>
<path fill="none" stroke="black" d="M738,-274.1C732,-274.1 726,-268.1 726,-262.1"/>
<polyline fill="none" stroke="black" points="726,-262.1 726,-188.5 "/>
<path fill="none" stroke="black" d="M726,-188.5C726,-182.5 732,-176.5 738,-176.5"/>
<text text-anchor="middle" x="790.362" y="-256.1" font-family="Times,serif" font-size="14.00">InterfacesController</text>
<polyline fill="none" stroke="black" points="726,-249.3 854.725,-249.3 "/>
<polyline fill="none" stroke="black" points="726,-225.3 854.725,-225.3 "/>
<polyline fill="none" stroke="black" points="726,-201.3 854.725,-201.3 "/>
<text text-anchor="start" x="734" y="-183.3" font-family="Times,serif" font-size="14.00">_layout</text>
</g>
<!-- NodesController -->
<g id="node10" class="node"><title>NodesController</title>
<polyline fill="none" stroke="black" points="496,-176.5 681.635,-176.5 "/>
<path fill="none" stroke="black" d="M681.635,-176.5C687.635,-176.5 693.635,-182.5 693.635,-188.5"/>
<polyline fill="none" stroke="black" points="693.635,-188.5 693.635,-346.9 "/>
<path fill="none" stroke="black" d="M693.635,-346.9C693.635,-352.9 687.635,-358.9 681.635,-358.9"/>
<polyline fill="none" stroke="black" points="681.635,-358.9 496,-358.9 "/>
<path fill="none" stroke="black" d="M496,-358.9C490,-358.9 484,-352.9 484,-346.9"/>
<polyline fill="none" stroke="black" points="484,-346.9 484,-188.5 "/>
<path fill="none" stroke="black" d="M484,-188.5C484,-182.5 490,-176.5 496,-176.5"/>
<text text-anchor="middle" x="588.817" y="-340.9" font-family="Times,serif" font-size="14.00">NodesController</text>
<polyline fill="none" stroke="black" points="484,-334.1 693.635,-334.1 "/>
<text text-anchor="start" x="492" y="-316.1" font-family="Times,serif" font-size="14.00">_callback_before_277</text>
<text text-anchor="start" x="492" y="-299.3" font-family="Times,serif" font-size="14.00">_callback_before_281</text>
<text text-anchor="start" x="492" y="-282.5" font-family="Times,serif" font-size="14.00">_one_time_conditions_valid_278?</text>
<text text-anchor="start" x="492" y="-265.7" font-family="Times,serif" font-size="14.00">_one_time_conditions_valid_282?</text>
<text text-anchor="start" x="492" y="-248.9" font-family="Times,serif" font-size="14.00">_one_time_conditions_valid_286?</text>
<text text-anchor="start" x="492" y="-232.1" font-family="Times,serif" font-size="14.00">_one_time_conditions_valid_288?</text>
<polyline fill="none" stroke="black" points="484,-225.3 693.635,-225.3 "/>
<polyline fill="none" stroke="black" points="484,-201.3 693.635,-201.3 "/>
<text text-anchor="start" x="492" y="-183.3" font-family="Times,serif" font-size="14.00">_layout</text>
</g>
<!-- NotificationsController -->
<g id="node11" class="node"><title>NotificationsController</title>
<polyline fill="none" stroke="black" points="584,-44.5 705.876,-44.5 "/>
<path fill="none" stroke="black" d="M705.876,-44.5C711.876,-44.5 717.876,-50.5 717.876,-56.5"/>
<polyline fill="none" stroke="black" points="717.876,-56.5 717.876,-130.1 "/>
<path fill="none" stroke="black" d="M717.876,-130.1C717.876,-136.1 711.876,-142.1 705.876,-142.1"/>
<polyline fill="none" stroke="black" points="705.876,-142.1 584,-142.1 "/>
<path fill="none" stroke="black" d="M584,-142.1C578,-142.1 572,-136.1 572,-130.1"/>
<polyline fill="none" stroke="black" points="572,-130.1 572,-56.5 "/>
<path fill="none" stroke="black" d="M572,-56.5C572,-50.5 578,-44.5 584,-44.5"/>
<text text-anchor="middle" x="644.938" y="-124.1" font-family="Times,serif" font-size="14.00">NotificationsController</text>
<polyline fill="none" stroke="black" points="572,-117.3 717.876,-117.3 "/>
<polyline fill="none" stroke="black" points="572,-93.3 717.876,-93.3 "/>
<polyline fill="none" stroke="black" points="572,-69.3 717.876,-69.3 "/>
<text text-anchor="start" x="580" y="-51.3" font-family="Times,serif" font-size="14.00">_layout</text>
</g>
<!-- PollersController -->
<g id="node12" class="node"><title>PollersController</title>
<polyline fill="none" stroke="black" points="452,-660.5 540.435,-660.5 "/>
<path fill="none" stroke="black" d="M540.435,-660.5C546.435,-660.5 552.435,-666.5 552.435,-672.5"/>
<polyline fill="none" stroke="black" points="552.435,-672.5 552.435,-746.9 "/>
<path fill="none" stroke="black" d="M552.435,-746.9C552.435,-752.9 546.435,-758.9 540.435,-758.9"/>
<polyline fill="none" stroke="black" points="540.435,-758.9 452,-758.9 "/>
<path fill="none" stroke="black" d="M452,-758.9C446,-758.9 440,-752.9 440,-746.9"/>
<polyline fill="none" stroke="black" points="440,-746.9 440,-672.5 "/>
<path fill="none" stroke="black" d="M440,-672.5C440,-666.5 446,-660.5 452,-660.5"/>
<text text-anchor="middle" x="496.217" y="-740.9" font-family="Times,serif" font-size="14.00">PollersController</text>
<polyline fill="none" stroke="black" points="440,-734.1 552.435,-734.1 "/>
<text text-anchor="start" x="448" y="-716.1" font-family="Times,serif" font-size="14.00">index</text>
<polyline fill="none" stroke="black" points="440,-709.3 552.435,-709.3 "/>
<polyline fill="none" stroke="black" points="440,-685.3 552.435,-685.3 "/>
<text text-anchor="start" x="448" y="-667.3" font-family="Times,serif" font-size="14.00">_layout</text>
</g>
<!-- ServicesController -->
<g id="node14" class="node"><title>ServicesController</title>
<polyline fill="none" stroke="black" points="100,-374.5 196.973,-374.5 "/>
<path fill="none" stroke="black" d="M196.973,-374.5C202.973,-374.5 208.973,-380.5 208.973,-386.5"/>
<polyline fill="none" stroke="black" points="208.973,-386.5 208.973,-460.1 "/>
<path fill="none" stroke="black" d="M208.973,-460.1C208.973,-466.1 202.973,-472.1 196.973,-472.1"/>
<polyline fill="none" stroke="black" points="196.973,-472.1 100,-472.1 "/>
<path fill="none" stroke="black" d="M100,-472.1C94,-472.1 88,-466.1 88,-460.1"/>
<polyline fill="none" stroke="black" points="88,-460.1 88,-386.5 "/>
<path fill="none" stroke="black" d="M88,-386.5C88,-380.5 94,-374.5 100,-374.5"/>
<text text-anchor="middle" x="148.486" y="-454.1" font-family="Times,serif" font-size="14.00">ServicesController</text>
<polyline fill="none" stroke="black" points="88,-447.3 208.973,-447.3 "/>
<polyline fill="none" stroke="black" points="88,-423.3 208.973,-423.3 "/>
<polyline fill="none" stroke="black" points="88,-399.3 208.973,-399.3 "/>
<text text-anchor="start" x="96" y="-381.3" font-family="Times,serif" font-size="14.00">_layout</text>
</g>
</g>
</svg>
