<?xml version="1.0" encoding="UTF-8" standalone="no"?>
<!DOCTYPE svg PUBLIC "-//W3C//DTD SVG 1.1//EN"
 "http://www.w3.org/Graphics/SVG/1.1/DTD/svg11.dtd">
<!-- Generated by graphviz version 2.28.0 (20121119.0800)
 -->
<!-- Title: models_diagram Pages: 1 -->
<svg width="2079pt" height="480pt"
 viewBox="0.00 0.00 2079.00 480.00" xmlns="http://www.w3.org/2000/svg" xmlns:xlink="http://www.w3.org/1999/xlink">
<g id="graph1" class="graph" transform="scale(1 1) rotate(0) translate(4 476)">
<title>models_diagram</title>
<polygon fill="white" stroke="white" points="-4,5 -4,-476 2076,-476 2076,5 -4,5"/>
<!-- _diagram_info -->
<g id="node1" class="node"><title>_diagram_info</title>
<text text-anchor="start" x="7.55029" y="-455" font-family="Times,serif" font-size="13.00">Models diagram</text>
<text text-anchor="start" x="7.55029" y="-439.4" font-family="Times,serif" font-size="13.00">Date: Nov 25 2012 &#45; 13:46</text>
<text text-anchor="start" x="7.55029" y="-423.8" font-family="Times,serif" font-size="13.00">Migration version: 20121125031423</text>
<text text-anchor="start" x="7.55029" y="-408.2" font-family="Times,serif" font-size="13.00">Generated by RailRoady 1.1.0</text>
<text text-anchor="start" x="7.55029" y="-392.6" font-family="Times,serif" font-size="13.00">http://railroady.prestonlee.com</text>
</g>
<!-- Command -->
<g id="node2" class="node"><title>Command</title>
<ellipse fill="none" stroke="black" cx="276" cy="-429" rx="50.9099" ry="18"/>
<text text-anchor="middle" x="276" y="-423.4" font-family="Times,serif" font-size="14.00">Command</text>
</g>
<!-- Contact::Email -->
<g id="node3" class="node"><title>Contact::Email</title>
<ellipse fill="none" stroke="black" cx="290" cy="-240" rx="69.2524" ry="18"/>
<text text-anchor="middle" x="290" y="-234.4" font-family="Times,serif" font-size="14.00">Contact::Email</text>
</g>
<!-- Contact::Postback -->
<g id="node4" class="node"><title>Contact::Postback</title>
<ellipse fill="none" stroke="black" cx="459" cy="-240" rx="80.9639" ry="18"/>
<text text-anchor="middle" x="459" y="-234.4" font-family="Times,serif" font-size="14.00">Contact::Postback</text>
</g>
<!-- Contact -->
<g id="node5" class="node"><title>Contact</title>
<ellipse fill="none" stroke="black" cx="375" cy="-330" rx="41.1096" ry="18"/>
<text text-anchor="middle" x="375" y="-324.4" font-family="Times,serif" font-size="14.00">Contact</text>
</g>
<!-- Contact&#45;&gt;Contact::Email -->
<g id="edge2" class="edge"><title>Contact&#45;&gt;Contact::Email</title>
<path fill="none" stroke="black" d="M359.804,-313.267C344.714,-297.645 321.661,-273.779 306.222,-257.795"/>
</g>
<!-- Contact&#45;&gt;Contact::Postback -->
<g id="edge4" class="edge"><title>Contact&#45;&gt;Contact::Postback</title>
<path fill="none" stroke="black" d="M390.407,-312.859C405.279,-297.279 427.708,-273.782 442.832,-257.938"/>
</g>
<!-- DataPoint -->
<g id="node6" class="node"><title>DataPoint</title>
<ellipse fill="none" stroke="black" cx="691" cy="-18" rx="49.4888" ry="18"/>
<text text-anchor="middle" x="691" y="-12.4" font-family="Times,serif" font-size="14.00">DataPoint</text>
</g>
<!-- DataSource -->
<g id="node7" class="node"><title>DataSource</title>
<ellipse fill="none" stroke="black" cx="614" cy="-240" rx="56.1228" ry="18"/>
<text text-anchor="middle" x="614" y="-234.4" font-family="Times,serif" font-size="14.00">DataSource</text>
</g>
<!-- DataStream -->
<g id="node8" class="node"><title>DataStream</title>
<ellipse fill="none" stroke="black" cx="691" cy="-92" rx="56.4286" ry="18"/>
<text text-anchor="middle" x="691" y="-86.4" font-family="Times,serif" font-size="14.00">DataStream</text>
</g>
<!-- DataSource&#45;&gt;DataStream -->
<g id="edge6" class="edge"><title>DataSource&#45;&gt;DataStream</title>
<path fill="none" stroke="#27c27b" d="M626.914,-214.514C640.905,-187.986 663.132,-145.84 677.39,-118.807"/>
<ellipse fill="none" stroke="#27c27b" cx="624.85" cy="-218.428" rx="4.00002" ry="4.00002"/>
<polygon fill="#27c27b" stroke="#27c27b" points="677.409,-118.771 686.054,-112.025 679.741,-114.348 682.074,-109.925 682.074,-109.925 682.074,-109.925 679.741,-114.348 678.093,-107.826 677.409,-118.771 677.409,-118.771"/>
</g>
<!-- Poller -->
<g id="node22" class="node"><title>Poller</title>
<ellipse fill="none" stroke="black" cx="755" cy="-166" rx="34.1558" ry="18"/>
<text text-anchor="middle" x="755" y="-160.4" font-family="Times,serif" font-size="14.00">Poller</text>
</g>
<!-- DataSource&#45;&gt;Poller -->
<g id="edge8" class="edge"><title>DataSource&#45;&gt;Poller</title>
<path fill="none" stroke="#3e9c3d" d="M651.487,-219.858C673.519,-208.607 701.108,-194.52 722.261,-183.718"/>
<polygon fill="#3e9c3d" stroke="#3e9c3d" points="651.44,-219.882 640.487,-220.422 646.986,-222.156 642.533,-224.43 642.533,-224.43 642.533,-224.43 646.986,-222.156 644.58,-228.437 651.44,-219.882 651.44,-219.882"/>
<polygon fill="#3e9c3d" stroke="#3e9c3d" points="722.285,-183.706 733.237,-183.166 726.738,-181.432 731.191,-179.158 731.191,-179.158 731.191,-179.158 726.738,-181.432 729.144,-175.15 722.285,-183.706 722.285,-183.706"/>
</g>
<!-- DataStream&#45;&gt;DataPoint -->
<g id="edge10" class="edge"><title>DataStream&#45;&gt;DataPoint</title>
<path fill="none" stroke="#239179" d="M691,-65.7923C691,-59.5805 691,-52.8963 691,-46.5786"/>
<ellipse fill="none" stroke="#239179" cx="691" cy="-69.937" rx="4" ry="4"/>
<polygon fill="#239179" stroke="#239179" points="691,-46.4407 695.5,-36.4406 691,-41.4407 691,-36.4407 691,-36.4407 691,-36.4407 691,-41.4407 686.5,-36.4407 691,-46.4407 691,-46.4407"/>
</g>
<!-- DataTemplate -->
<g id="node9" class="node"><title>DataTemplate</title>
<ellipse fill="none" stroke="black" cx="1120" cy="-429" rx="65.0826" ry="18"/>
<text text-anchor="middle" x="1120" y="-423.4" font-family="Times,serif" font-size="14.00">DataTemplate</text>
</g>
<!-- Dependency -->
<g id="node10" class="node"><title>Dependency</title>
<ellipse fill="none" stroke="black" cx="747" cy="-240" rx="58.9477" ry="18"/>
<text text-anchor="middle" x="747" y="-234.4" font-family="Times,serif" font-size="14.00">Dependency</text>
</g>
<!-- Device -->
<g id="node11" class="node"><title>Device</title>
<ellipse fill="none" stroke="black" cx="900" cy="-240" rx="38.0718" ry="18"/>
<text text-anchor="middle" x="900" y="-234.4" font-family="Times,serif" font-size="14.00">Device</text>
</g>
<!-- Interface -->
<g id="node16" class="node"><title>Interface</title>
<ellipse fill="none" stroke="black" cx="923" cy="-166" rx="45.0117" ry="18"/>
<text text-anchor="middle" x="923" y="-160.4" font-family="Times,serif" font-size="14.00">Interface</text>
</g>
<!-- Device&#45;&gt;Interface -->
<g id="edge12" class="edge"><title>Device&#45;&gt;Interface</title>
<path fill="none" stroke="#aa9e06" d="M907.902,-214.262C909.998,-207.701 912.272,-200.584 914.403,-193.913"/>
<ellipse fill="none" stroke="#aa9e06" cx="906.668" cy="-218.127" rx="4.00001" ry="4.00001"/>
<polygon fill="#aa9e06" stroke="#aa9e06" points="914.545,-193.466 921.875,-185.31 916.067,-188.703 917.588,-183.941 917.588,-183.941 917.588,-183.941 916.067,-188.703 913.302,-182.571 914.545,-193.466 914.545,-193.466"/>
</g>
<!-- Event::SnmpDiscover -->
<g id="node12" class="node"><title>Event::SnmpDiscover</title>
<ellipse fill="none" stroke="black" cx="1308" cy="-330" rx="95.991" ry="18"/>
<text text-anchor="middle" x="1308" y="-324.4" font-family="Times,serif" font-size="14.00">Event::SnmpDiscover</text>
</g>
<!-- Event -->
<g id="node13" class="node"><title>Event</title>
<ellipse fill="none" stroke="black" cx="1308" cy="-429" rx="33.3419" ry="18"/>
<text text-anchor="middle" x="1308" y="-423.4" font-family="Times,serif" font-size="14.00">Event</text>
</g>
<!-- Event&#45;&gt;Event::SnmpDiscover -->
<g id="edge16" class="edge"><title>Event&#45;&gt;Event::SnmpDiscover</title>
<path fill="none" stroke="black" d="M1308,-410.658C1308,-393.002 1308,-365.793 1308,-348.192"/>
</g>
<!-- EventFilter -->
<g id="node14" class="node"><title>EventFilter</title>
<ellipse fill="none" stroke="black" cx="1414" cy="-429" rx="54.2251" ry="18"/>
<text text-anchor="middle" x="1414" y="-423.4" font-family="Times,serif" font-size="14.00">EventFilter</text>
</g>
<!-- Group -->
<g id="node15" class="node"><title>Group</title>
<ellipse fill="none" stroke="black" cx="983" cy="-429" rx="35.5667" ry="18"/>
<text text-anchor="middle" x="983" y="-423.4" font-family="Times,serif" font-size="14.00">Group</text>
</g>
<!-- Membership -->
<g id="node17" class="node"><title>Membership</title>
<ellipse fill="none" stroke="black" cx="1190" cy="-240" rx="59.2755" ry="18"/>
<text text-anchor="middle" x="1190" y="-234.4" font-family="Times,serif" font-size="14.00">Membership</text>
</g>
<!-- Group&#45;&gt;Membership -->
<g id="edge18" class="edge"><title>Group&#45;&gt;Membership</title>
<path fill="none" stroke="#34f3cd" d="M1008.8,-408.978C1019.91,-401.272 1033.26,-392.644 1046,-386 1087.05,-364.591 1109.6,-380.07 1143,-348 1165.56,-326.332 1178,-291.951 1184.32,-268.031"/>
<ellipse fill="none" stroke="#34f3cd" cx="1005.46" cy="-411.328" rx="4.00002" ry="4.00002"/>
<polygon fill="#34f3cd" stroke="#34f3cd" points="1184.35,-267.886 1191.11,-259.245 1185.54,-263.03 1186.74,-258.174 1186.74,-258.174 1186.74,-258.174 1185.54,-263.03 1182.36,-257.102 1184.35,-267.886 1184.35,-267.886"/>
</g>
<!-- Node -->
<g id="node19" class="node"><title>Node</title>
<ellipse fill="none" stroke="black" cx="930" cy="-330" rx="31.4312" ry="18"/>
<text text-anchor="middle" x="930" y="-324.4" font-family="Times,serif" font-size="14.00">Node</text>
</g>
<!-- Group&#45;&gt;Node -->
<g id="edge20" class="edge"><title>Group&#45;&gt;Node</title>
<path fill="none" stroke="#6871b8" d="M969.066,-402.497C961.35,-388.377 951.785,-370.872 944.051,-356.717"/>
<polygon fill="#6871b8" stroke="#6871b8" points="969.214,-402.77 970.06,-413.703 971.612,-407.158 974.009,-411.545 974.009,-411.545 974.009,-411.545 971.612,-407.158 977.958,-409.388 969.214,-402.77 969.214,-402.77"/>
<polygon fill="#6871b8" stroke="#6871b8" points="943.83,-356.311 942.984,-345.378 941.432,-351.923 939.035,-347.535 939.035,-347.535 939.035,-347.535 941.432,-351.923 935.086,-349.693 943.83,-356.311 943.83,-356.311"/>
</g>
<!-- Network -->
<g id="node18" class="node"><title>Network</title>
<ellipse fill="none" stroke="black" cx="1531" cy="-429" rx="44.2418" ry="18"/>
<text text-anchor="middle" x="1531" y="-423.4" font-family="Times,serif" font-size="14.00">Network</text>
</g>
<!-- Node&#45;&gt;DataSource -->
<g id="edge36" class="edge"><title>Node&#45;&gt;DataSource</title>
<path fill="none" stroke="#8d8877" d="M890.183,-328.165C822.243,-326.074 687.435,-318.831 648,-294 637.975,-287.688 630.345,-277.222 624.879,-267.251"/>
<ellipse fill="none" stroke="#8d8877" cx="894.522" cy="-328.29" rx="4" ry="4"/>
<polygon fill="#8d8877" stroke="#8d8877" points="624.732,-266.955 624.325,-255.997 622.512,-262.475 620.293,-257.994 620.293,-257.994 620.293,-257.994 622.512,-262.475 616.261,-259.992 624.732,-266.955 624.732,-266.955"/>
</g>
<!-- Node&#45;&gt;Dependency -->
<g id="edge28" class="edge"><title>Node&#45;&gt;Dependency</title>
<path fill="none" stroke="#455123" d="M891.21,-324.788C849.514,-319.548 786.748,-309.371 768.482,-294 760.533,-287.31 755.493,-277.233 752.312,-267.656"/>
<ellipse fill="none" stroke="#455123" cx="895.278" cy="-325.285" rx="4.00001" ry="4.00001"/>
<polygon fill="#455123" stroke="#455123" points="752.311,-267.653 753.961,-256.812 750.968,-262.836 749.626,-258.02 749.626,-258.02 749.626,-258.02 750.968,-262.836 745.291,-259.228 752.311,-267.653 752.311,-267.653"/>
<text text-anchor="middle" x="822.259" y="-279.4" font-family="Times,serif" font-size="14.00">dependency_nodes</text>
</g>
<!-- Node&#45;&gt;Dependency -->
<g id="edge32" class="edge"><title>Node&#45;&gt;Dependency</title>
<path fill="none" stroke="#8ad31c" d="M890.791,-326.84C818.501,-322.455 670.152,-311.421 654.807,-294 649.519,-287.997 650.263,-282.585 654.807,-276 659.893,-268.628 676.221,-261.436 693.752,-255.508"/>
<ellipse fill="none" stroke="#8ad31c" cx="894.806" cy="-327.079" rx="4" ry="4"/>
<polygon fill="#8ad31c" stroke="#8ad31c" points="694.033,-255.418 704.931,-256.635 698.792,-253.885 703.551,-252.352 703.551,-252.352 703.551,-252.352 698.792,-253.885 702.172,-248.068 694.033,-255.418 694.033,-255.418"/>
<text text-anchor="middle" x="703.597" y="-279.4" font-family="Times,serif" font-size="14.00">dependent_nodes</text>
</g>
<!-- Node&#45;&gt;Device -->
<g id="edge14" class="edge"><title>Node&#45;&gt;Device</title>
<path fill="none" stroke="black" d="M924.216,-312.033C918.903,-296.45 911.073,-273.482 905.767,-257.915"/>
</g>
<!-- Node&#45;&gt;Interface -->
<g id="edge22" class="edge"><title>Node&#45;&gt;Interface</title>
<path fill="none" stroke="black" d="M936.424,-312.229C943.663,-291.085 953.609,-253.67 947,-222 944.191,-208.538 937.898,-194.336 932.46,-183.736"/>
</g>
<!-- Node&#45;&gt;Membership -->
<g id="edge38" class="edge"><title>Node&#45;&gt;Membership</title>
<path fill="none" stroke="#cfaa0b" d="M965.077,-318.442C987.214,-311.68 1016.37,-302.591 1042,-294 1076.53,-282.429 1115.26,-268.523 1144.44,-257.859"/>
<ellipse fill="none" stroke="#cfaa0b" cx="961.085" cy="-319.658" rx="4.00001" ry="4.00001"/>
<polygon fill="#cfaa0b" stroke="#cfaa0b" points="1144.56,-257.815 1155.5,-258.6 1149.26,-256.095 1153.95,-254.375 1153.95,-254.375 1153.95,-254.375 1149.26,-256.095 1152.41,-250.15 1144.56,-257.815 1144.56,-257.815"/>
</g>
<!-- Node&#45;&gt;Node -->
<g id="edge30" class="edge"><title>Node&#45;&gt;Node</title>
<path fill="none" stroke="#62cfc6" d="M971.153,-332.875C975.909,-332.343 979,-331.384 979,-330 979,-328.616 975.909,-327.657 971.153,-327.125"/>
<polygon fill="#62cfc6" stroke="#62cfc6" points="971.09,-332.878 960.879,-328.88 966.096,-333.126 961.102,-333.374 961.102,-333.374 961.102,-333.374 966.096,-333.126 961.325,-337.869 971.09,-332.878 971.09,-332.878"/>
<polygon fill="#62cfc6" stroke="#62cfc6" points="971.09,-327.122 961.325,-322.131 966.096,-326.874 961.102,-326.626 961.102,-326.626 961.102,-326.626 966.096,-326.874 960.879,-331.12 971.09,-327.122 971.09,-327.122"/>
<text text-anchor="middle" x="1016.7" y="-324.4" font-family="Times,serif" font-size="14.00">dependencies</text>
</g>
<!-- Node&#45;&gt;Node -->
<g id="edge34" class="edge"><title>Node&#45;&gt;Node</title>
<path fill="none" stroke="#774566" d="M965.313,-343.19C1003.13,-349.493 1054.41,-345.096 1054.41,-330 1054.41,-314.904 1003.13,-310.507 965.313,-316.81"/>
<polygon fill="#774566" stroke="#774566" points="964.861,-343.099 955.944,-336.717 959.959,-342.114 955.057,-341.129 955.057,-341.129 955.057,-341.129 959.959,-342.114 954.17,-345.541 964.861,-343.099 964.861,-343.099"/>
<polygon fill="#774566" stroke="#774566" points="964.861,-316.901 954.17,-314.459 959.959,-317.886 955.057,-318.871 955.057,-318.871 955.057,-318.871 959.959,-317.886 955.944,-323.283 964.861,-316.901 964.861,-316.901"/>
<text text-anchor="middle" x="1085.9" y="-324.4" font-family="Times,serif" font-size="14.00">dependents</text>
</g>
<!-- Node&#45;&gt;Poller -->
<g id="edge26" class="edge"><title>Node&#45;&gt;Poller</title>
<path fill="none" stroke="#82cdb8" d="M907.504,-306.522C897.693,-296.93 885.952,-285.728 875,-276 865.555,-267.61 862.481,-266.35 853,-258 835.541,-242.624 832.02,-237.861 815,-222 803.187,-210.992 789.966,-198.853 778.947,-188.786"/>
<polygon fill="#82cdb8" stroke="#82cdb8" points="907.78,-306.794 911.748,-317.016 911.343,-310.302 914.905,-313.81 914.905,-313.81 914.905,-313.81 911.343,-310.302 918.063,-310.604 907.78,-306.794 907.78,-306.794"/>
<polygon fill="#82cdb8" stroke="#82cdb8" points="778.752,-188.608 774.398,-178.544 775.058,-185.238 771.365,-181.868 771.365,-181.868 771.365,-181.868 775.058,-185.238 768.332,-185.192 778.752,-188.608 778.752,-188.608"/>
</g>
<!-- PollerNode -->
<g id="node23" class="node"><title>PollerNode</title>
<ellipse fill="none" stroke="black" cx="912" cy="-92" rx="55.0313" ry="18"/>
<text text-anchor="middle" x="912" y="-86.4" font-family="Times,serif" font-size="14.00">PollerNode</text>
</g>
<!-- Node&#45;&gt;PollerNode -->
<g id="edge24" class="edge"><title>Node&#45;&gt;PollerNode</title>
<path fill="none" stroke="#545818" d="M950.509,-307.794C953.786,-303.494 956.812,-298.808 959,-294 986.08,-234.492 1004.51,-207.311 977,-148 970.644,-134.295 959.004,-122.768 947.312,-113.863"/>
<ellipse fill="none" stroke="#545818" cx="947.781" cy="-311.107" rx="4.00002" ry="4.00002"/>
<polygon fill="#545818" stroke="#545818" points="947.01,-113.648 941.473,-104.183 942.937,-110.748 938.864,-107.849 938.864,-107.849 938.864,-107.849 942.937,-110.748 936.254,-111.515 947.01,-113.648 947.01,-113.648"/>
</g>
<!-- Service -->
<g id="node24" class="node"><title>Service</title>
<ellipse fill="none" stroke="black" cx="1072" cy="-240" rx="39.4899" ry="18"/>
<text text-anchor="middle" x="1072" y="-234.4" font-family="Times,serif" font-size="14.00">Service</text>
</g>
<!-- Node&#45;&gt;Service -->
<g id="edge44" class="edge"><title>Node&#45;&gt;Service</title>
<path fill="none" stroke="black" d="M957.529,-321.183C975.598,-315.319 999.263,-306.204 1018,-294 1033.63,-283.82 1048.54,-268.626 1058.71,-257.113"/>
</g>
<!-- Notification -->
<g id="node20" class="node"><title>Notification</title>
<ellipse fill="none" stroke="black" cx="1651" cy="-429" rx="57.2568" ry="18"/>
<text text-anchor="middle" x="1651" y="-423.4" font-family="Times,serif" font-size="14.00">Notification</text>
</g>
<!-- Plugin -->
<g id="node21" class="node"><title>Plugin</title>
<ellipse fill="none" stroke="black" cx="1762" cy="-429" rx="35.8905" ry="18"/>
<text text-anchor="middle" x="1762" y="-423.4" font-family="Times,serif" font-size="14.00">Plugin</text>
</g>
<!-- Poller&#45;&gt;DataStream -->
<g id="edge42" class="edge"><title>Poller&#45;&gt;DataStream</title>
<path fill="none" stroke="#18facc" d="M735.697,-143.285C728.413,-135.09 720.081,-125.717 712.601,-117.301"/>
<ellipse fill="none" stroke="#18facc" cx="738.455" cy="-146.387" rx="4.00002" ry="4.00002"/>
<polygon fill="#18facc" stroke="#18facc" points="712.394,-117.069 709.114,-106.605 709.073,-113.332 705.751,-109.595 705.751,-109.595 705.751,-109.595 709.073,-113.332 702.387,-112.584 712.394,-117.069 712.394,-117.069"/>
</g>
<!-- Poller&#45;&gt;PollerNode -->
<g id="edge40" class="edge"><title>Poller&#45;&gt;PollerNode</title>
<path fill="none" stroke="#bc96fa" d="M787.318,-150.179C811.865,-138.922 845.761,-123.377 872.015,-111.337"/>
<ellipse fill="none" stroke="#bc96fa" cx="783.513" cy="-151.924" rx="4.00002" ry="4.00002"/>
<polygon fill="#bc96fa" stroke="#bc96fa" points="872.221,-111.243 883.187,-111.164 876.766,-109.158 881.311,-107.074 881.311,-107.074 881.311,-107.074 876.766,-109.158 879.435,-102.984 872.221,-111.243 872.221,-111.243"/>
</g>
<!-- ServiceType -->
<g id="node25" class="node"><title>ServiceType</title>
<ellipse fill="none" stroke="black" cx="1875" cy="-429" rx="59.2416" ry="18"/>
<text text-anchor="middle" x="1875" y="-423.4" font-family="Times,serif" font-size="14.00">ServiceType</text>
</g>
<!-- Subscription -->
<g id="node26" class="node"><title>Subscription</title>
<ellipse fill="none" stroke="black" cx="2012" cy="-429" rx="59.2895" ry="18"/>
<text text-anchor="middle" x="2012" y="-423.4" font-family="Times,serif" font-size="14.00">Subscription</text>
</g>
<!-- User -->
<g id="node27" class="node"><title>User</title>
<ellipse fill="none" stroke="black" cx="375" cy="-429" rx="28.9087" ry="18"/>
<text text-anchor="middle" x="375" y="-423.4" font-family="Times,serif" font-size="14.00">User</text>
</g>
<!-- User&#45;&gt;Contact -->
<g id="edge46" class="edge"><title>User&#45;&gt;Contact</title>
<path fill="none" stroke="#81a0c2" d="M375,-402.227C375,-388.741 375,-372.227 375,-358.496"/>
<ellipse fill="none" stroke="#81a0c2" cx="375" cy="-406.658" rx="4" ry="4"/>
<polygon fill="#81a0c2" stroke="#81a0c2" points="375,-358.192 379.5,-348.191 375,-353.192 375,-348.192 375,-348.192 375,-348.192 375,-353.192 370.5,-348.192 375,-358.192 375,-358.192"/>
</g>
</g>
</svg>
